<?xml version="1.0" encoding="UTF-8"?>
<svg version="1.1" xmlns="http://www.w3.org/2000/svg" width="512" height="512">
<path d="M0 0 C4.03734784 3.3501397 5.80899299 5.399014 6.4296875 10.6015625 C6.34836356 16.07490996 3.43960498 19.25633898 0.125 23.375 C-22.09950475 52.58374204 -33.21751763 87.25837111 -33.25 123.8125 C-33.25100708 124.59556519 -33.25201416 125.37863037 -33.25305176 126.1854248 C-33.24273823 138.03324163 -32.72869546 149.42415748 -30 161 C-29.85546387 161.64694824 -29.71092773 162.29389648 -29.56201172 162.96044922 C-23.28985812 190.58431948 -9.83467703 215.96422905 9 237 C9.72703125 237.85980469 10.4540625 238.71960938 11.203125 239.60546875 C38.3504685 271.22709664 80.21334759 290.29082654 121.32739258 293.53564453 C152.09747908 295.64556184 181.99341414 290.06547367 209.87280273 276.80908203 C213.55492052 275.40858411 217.16048899 275.10709046 221 276 C224 278.4375 224 278.4375 226 281 C226.33 281.33 226.66 281.66 227 282 C227.85177494 289.23784309 226.47237594 294.61148737 223.1875 301 C222.78442627 301.81251221 222.38135254 302.62502441 221.96606445 303.4621582 C212.36421325 322.43301067 200.37379615 340.1032944 185.55615234 355.38818359 C184.45714909 356.52649854 183.36714992 357.67353973 182.28369141 358.82666016 C166.67795292 375.42522563 149.04357727 388.25205917 129 399 C128.33081543 399.36673828 127.66163086 399.73347656 126.97216797 400.11132812 C98.80486412 415.47145465 66.92168132 422.81634554 35 424 C33.53240234 424.061875 33.53240234 424.061875 32.03515625 424.125 C-26.93036192 425.36474808 -79.52689662 401.16779994 -122.34375 361.84765625 C-126.85018021 357.47534599 -130.81454305 352.71965223 -134.73046875 347.81640625 C-136.15709593 346.04601348 -137.61429727 344.29940589 -139.11328125 342.58984375 C-174.08177855 302.25141268 -187.77327804 246.04119005 -184.71875 193.7421875 C-180.74202717 138.07854671 -154.02943785 85.75965343 -112.46484375 48.7421875 C-84.24177343 24.9888342 -51.75500949 8.73784206 -15.8125 0.375 C-15.12551025 0.21032227 -14.43852051 0.04564453 -13.73071289 -0.12402344 C-8.80916091 -1.16555691 -4.87844742 -0.9746581 0 0 Z " fill="#FCBE48" transform="translate(227,46)"/>
</svg>
