<?xml version="1.0" encoding="UTF-8"?>
<svg version="1.1" xmlns="http://www.w3.org/2000/svg" width="512" height="512">
<path d="M0 0 C1.01707031 0.2784375 2.03414062 0.556875 3.08203125 0.84375 C19.39060076 5.8025811 39.45932243 16.17481539 49 31 C49.3125 34.625 49.3125 34.625 49 38 C47 40 47 40 43.4375 40.3125 C40.23603805 40.2434037 37.68700052 39.66303616 34.6875 38.5625 C22.28153505 34.10145096 9.70653556 36.16523961 -2.11328125 41.46484375 C-14.30242673 47.94702802 -21.76259231 58.0143958 -26 71 C-29.45395834 83.33760912 -27.31923606 96.79891887 -21.45703125 107.9296875 C-16.04030999 117.07737694 -9.65230538 122.6909351 0 127 C0.29132813 126.26136719 0.58265625 125.52273437 0.8828125 124.76171875 C7.3712478 108.70386157 16.1249947 95.59214594 28 83 C28.61230469 82.32324219 29.22460938 81.64648438 29.85546875 80.94921875 C49.80922584 59.71910193 80.08022665 47.84311797 108.8359375 46.71875 C143.51619694 45.92522098 174.49909222 57.22180617 200 81 C221.41530507 101.55672235 235.60849014 131.00047735 236.265625 160.875 C236.27085628 163.24999995 236.26555647 165.62504524 236.25 168 C236.25773437 169.18078125 236.26546875 170.3615625 236.2734375 171.578125 C236.25655903 179.24095174 235.50993951 186.48813693 234 194 C235.30453125 193.96519531 236.6090625 193.93039063 237.953125 193.89453125 C255.06229906 193.57007799 269.14632637 195.44541202 282.25 207.5 C292.54871642 218.35629024 296.54633535 231.41478995 296.3125 246.1171875 C295.24959128 259.32382834 289.21449299 270.81423303 279.6875 279.890625 C267.37486082 289.55461505 254.27548445 291.3038859 239.10368347 291.26069641 C237.59478943 291.26372025 236.08589693 291.2676109 234.57700711 291.27228898 C230.447506 291.2825478 226.31809191 291.28039256 222.18858373 291.27610838 C217.72833855 291.2736373 213.26811412 291.2826601 208.80787659 291.29014587 C200.07605268 291.30288449 191.34425954 291.30468759 182.61242791 291.30234561 C175.51319932 291.30056127 168.41398006 291.30231458 161.31475258 291.30657005 C160.30365445 291.30716524 159.29255632 291.30776043 158.25081885 291.30837366 C156.19663943 291.30958543 154.14246001 291.31079957 152.0882806 291.31201603 C132.83093221 291.32288845 113.57360134 291.32073055 94.31625197 291.31463119 C76.71009077 291.30946291 59.1039849 291.32071567 41.49783465 291.33972941 C23.40824803 291.35911505 5.31868758 291.36736249 -12.77090949 291.36360615 C-22.92216449 291.36169514 -33.0733724 291.36417196 -43.22461891 291.37832069 C-51.86701956 291.39024474 -60.50934412 291.39162791 -69.15174583 291.37953053 C-73.55829929 291.37364891 -77.96471365 291.37252251 -82.37125778 291.38453293 C-86.41108872 291.39541555 -90.45066482 291.39226026 -94.49048396 291.37827124 C-95.94600417 291.37563084 -97.4015445 291.37797008 -98.85704491 291.38600711 C-115.78720922 291.47294747 -128.26487782 288.05726576 -140.70703125 276.38671875 C-150.79569976 265.88556635 -154.55708241 253.30848337 -154.27734375 238.98828125 C-153.38041548 226.09020012 -147.55368257 214.63632928 -138.19921875 205.81640625 C-131.86973609 200.58868079 -124.93882017 197.04730242 -117 195 C-116.29101562 194.81179687 -115.58203125 194.62359375 -114.8515625 194.4296875 C-110.63012478 193.79358045 -106.44933927 193.89618463 -102.1875 193.9375 C-101.30384766 193.94201172 -100.42019531 193.94652344 -99.50976562 193.95117188 C-97.33981441 193.96290134 -95.16989828 193.98083505 -93 194 C-91.45849861 180.96761848 -91.45849861 180.96761848 -94.875 168.8046875 C-97.36202033 166.45310906 -97.36202033 166.45310906 -100.140625 164.31640625 C-115.09057329 152.20531426 -123.99633336 128.53391643 -126 110 C-127.5654755 78.95095048 -121.77234068 53.80293929 -101.43359375 29.69140625 C-76.19784713 1.78220975 -36.45289809 -10.20153481 0 0 Z " fill="#EEF9FE" transform="translate(178,54)"/>
<path d="M0 0 C1.01707031 0.2784375 2.03414062 0.556875 3.08203125 0.84375 C19.39060076 5.8025811 39.45932243 16.17481539 49 31 C49.3125 34.625 49.3125 34.625 49 38 C47 40 47 40 43.4375 40.3125 C40.23603805 40.2434037 37.68700052 39.66303616 34.6875 38.5625 C22.28153505 34.10145096 9.70653556 36.16523961 -2.11328125 41.46484375 C-14.30242673 47.94702802 -21.76259231 58.0143958 -26 71 C-29.45395834 83.33760912 -27.31923606 96.79891887 -21.45703125 107.9296875 C-16.04030999 117.07737694 -9.65230538 122.6909351 0 127 C0.29132813 126.26136719 0.58265625 125.52273437 0.8828125 124.76171875 C7.3712478 108.70386157 16.1249947 95.59214594 28 83 C28.61230469 82.32324219 29.22460938 81.64648438 29.85546875 80.94921875 C49.80922584 59.71910193 80.08022665 47.84311797 108.8359375 46.71875 C123.13922579 46.39512557 137.4194629 47.13469855 151 52 C151 52.66 151 53.32 151 54 C149.90945313 54.14695313 148.81890625 54.29390625 147.6953125 54.4453125 C119.48974505 58.52250291 93.89229937 70.12082665 76 93 C72.76809632 97.52700335 69.8696831 102.23815533 67 107 C66.51789063 107.73347656 66.03578125 108.46695313 65.5390625 109.22265625 C54.10468977 127.53950174 51.55959858 152.9031334 51 174 C50.34515625 173.55269531 49.6903125 173.10539063 49.015625 172.64453125 C36.99179173 164.67959085 27.60793142 160.83782203 13 162 C12.09121094 162.0721875 11.18242187 162.144375 10.24609375 162.21875 C0.07195485 163.65586753 -9.68928521 169.9858789 -16 178 C-23.60234571 188.56597201 -27.18477772 200.41356164 -27.0625 213.375 C-27.05347656 214.62023437 -27.04445313 215.86546875 -27.03515625 217.1484375 C-27.02355469 218.08945312 -27.01195312 219.03046875 -27 220 C-28.299375 219.835 -29.59875 219.67 -30.9375 219.5 C-46.7292401 218.00135044 -61.50852857 217.88171011 -74.71875 227.9609375 C-85.68249279 237.7607213 -92.22116812 251.48565116 -93.13623047 266.18896484 C-93.41919274 274.5495333 -93.01708735 282.69925484 -92 291 C-111.40037571 291.51759896 -126.00712152 290.17500617 -140.70703125 276.38671875 C-150.79569976 265.88556635 -154.55708241 253.30848337 -154.27734375 238.98828125 C-153.38041548 226.09020012 -147.55368257 214.63632928 -138.19921875 205.81640625 C-131.86973609 200.58868079 -124.93882017 197.04730242 -117 195 C-116.29101562 194.81179687 -115.58203125 194.62359375 -114.8515625 194.4296875 C-110.63012478 193.79358045 -106.44933927 193.89618463 -102.1875 193.9375 C-101.30384766 193.94201172 -100.42019531 193.94652344 -99.50976562 193.95117188 C-97.33981441 193.96290134 -95.16989828 193.98083505 -93 194 C-91.45849861 180.96761848 -91.45849861 180.96761848 -94.875 168.8046875 C-97.36202033 166.45310906 -97.36202033 166.45310906 -100.140625 164.31640625 C-115.09057329 152.20531426 -123.99633336 128.53391643 -126 110 C-127.5654755 78.95095048 -121.77234068 53.80293929 -101.43359375 29.69140625 C-76.19784713 1.78220975 -36.45289809 -10.20153481 0 0 Z " fill="#BFEDFE" transform="translate(178,54)"/>
<path d="M0 0 C1.52560547 0.41765625 1.52560547 0.41765625 3.08203125 0.84375 C19.39060076 5.8025811 39.45932243 16.17481539 49 31 C49.3125 34.625 49.3125 34.625 49 38 C47 40 47 40 43.4375 40.3125 C40.23603805 40.2434037 37.68700052 39.66303616 34.6875 38.5625 C22.28153505 34.10145096 9.70653556 36.16523961 -2.11328125 41.46484375 C-14.30242673 47.94702802 -21.76259231 58.0143958 -26 71 C-29.45395834 83.33760912 -27.31923606 96.79891887 -21.45703125 107.9296875 C-16.05010116 117.06084175 -9.0922972 122.7525838 0 128 C-2 129 -2 129 -4.4609375 128.2578125 C-5.42257813 127.88398438 -6.38421875 127.51015625 -7.375 127.125 C-22.17946917 121.41869517 -40.66721397 122.11325811 -55.1796875 128.37109375 C-72.78840169 137.00972177 -83.80530079 151.40536889 -90.3125 169.6875 C-90.539375 170.450625 -90.76625 171.21375 -91 172 C-105.83031151 165.33615958 -115.38294474 145.40705182 -121 131 C-129.70740745 106.46148595 -128.54035305 78.22876311 -117.7746582 54.55517578 C-105.98070643 29.89876568 -85.72963407 11.16321387 -60 2 C-40.5561981 -4.1083023 -19.78697979 -5.53749012 0 0 Z " fill="#F5CB43" transform="translate(178,54)"/>
<path d="M0 0 C1.09248047 -0.01224609 2.18496094 -0.02449219 3.31054688 -0.03710938 C4.8796582 -0.04000977 4.8796582 -0.04000977 6.48046875 -0.04296875 C7.43203857 -0.04707764 8.3836084 -0.05118652 9.36401367 -0.05541992 C11.8125 0.1875 11.8125 0.1875 14.8125 2.1875 C13.86890625 2.41824219 12.9253125 2.64898437 11.953125 2.88671875 C-13.7544544 9.34139193 -37.06298361 23.10675617 -51.1875 46.1875 C-60.92149922 62.49194869 -66.60757543 79.75730866 -66.5 98.875 C-66.49436035 99.93009766 -66.4887207 100.98519531 -66.48291016 102.07226562 C-66.23890845 117.85265324 -62.37195303 133.01693554 -54.6875 146.875 C-53.1875 150.1875 -53.1875 150.1875 -53.875 152.4609375 C-55.73032799 156.31516053 -57.65418812 160.12971366 -59.62109375 163.92773438 C-61.49432088 167.60585202 -62.98228927 171.24043484 -64.1875 175.1875 C-79.01781151 168.52365958 -88.57044474 148.59455182 -94.1875 134.1875 C-102.89490745 109.64898595 -101.72785305 81.41626311 -90.9621582 57.74267578 C-79.16820643 33.08626568 -58.91713407 14.35071387 -33.1875 5.1875 C-22.08518545 1.69968965 -11.62655309 0.00693295 0 0 Z " fill="#FEB553" transform="translate(151.1875,50.8125)"/>
<path d="M0 0 C2.11965233 1.63050179 3.38500976 2.92695697 5 5 C5.52335937 5.65871094 6.04671875 6.31742187 6.5859375 6.99609375 C15.97527397 19.59309947 23.48640663 34.02583252 22 50 C19.99792378 58.54778649 14.94313229 65.44525147 7.75 70.4375 C2.54660499 73.39397444 -2.13973516 73.61044425 -8 73 C-14.92298283 70.94783009 -20.53302578 65.9994885 -24.2890625 59.91015625 C-28.57771433 51.62596189 -29.5108499 42.87395848 -27.1640625 33.75 C-23.13930291 22.7291818 -13.93584185 -1.63951081 0 0 Z " fill="#7AC3F2" transform="translate(155,388)"/>
<path d="M0 0 C7.61562331 1.96955775 10.90873266 9.22146994 14.69921875 15.58984375 C21.35692148 27.16317283 27.00116646 38.11772318 24.00390625 51.765625 C21.37589024 60.12855595 16.42389555 67.05721837 8.75 71.5 C3.43224217 73.76265382 -2.11667728 74.00086186 -7.61328125 72.20703125 C-15.29538797 68.6625564 -21.37569631 61.9707121 -24.4921875 54.125 C-28.12555808 41.00628145 -23.53868953 29.85555102 -17.5625 18.3125 C-7.10811693 -0.13163179 -7.10811693 -0.13163179 0 0 Z " fill="#7AC4F2" transform="translate(357.375,388.0625)"/>
<path d="M0 0 C10.64622611 9.22447255 20.34953676 26.84000943 22.0625 40.9375 C22.33401141 51.02867418 19.20860844 58.40105088 12.33203125 65.79296875 C7.82852827 69.96669577 2.97799228 72.83510913 -3.26171875 73.09375 C-11.31711085 72.54669451 -16.97308475 68.69385526 -22.42578125 62.99609375 C-27.04794032 57.13524192 -29.42269882 49.6446287 -29.27734375 42.19921875 C-27.32513744 26.71904762 -18.49105281 12.96623744 -9 1 C-5.86128812 -0.56935594 -3.46144178 -0.35201103 0 0 Z " fill="#7AC4F2" transform="translate(258,359)"/>
<path d="M0 0 C0.99 0.66 1.98 1.32 3 2 C2.41414542 5.49200164 1.18608332 7.16138751 -1.25 9.6875 C-11.19235432 20.687119 -15.40639342 34.17013137 -15.36328125 48.78515625 C-14.97384076 55.83982923 -12.40109037 62.41865066 -10 69 C-9.67 69.99 -9.34 70.98 -9 72 C-15.34974672 70.73005066 -19.01954139 66.83765759 -23 62 C-28.01340573 54.04175709 -28.87867036 46.31799268 -28 37 C-24.71760155 24.23852565 -16.89362748 10.6868429 -8 1 C-5.22899606 -0.38550197 -3.0665294 -0.1877467 0 0 Z " fill="#54B5F2" transform="translate(155,388)"/>
<path d="M0 0 C3.34354588 0.77618029 4.51559292 1.12771395 6.5 3.8125 C5.84 4.410625 5.18 5.00875 4.5 5.625 C-7.6453218 17.94284057 -12.83524457 32.02568799 -12.7265625 49.125 C-12.35257604 55.21195208 -11.26906665 61.5474441 -8.3359375 66.9609375 C-7.5 68.8125 -7.5 68.8125 -8.5 71.8125 C-16.78471503 66.61046963 -22.7688267 60.42996495 -25.5 50.8125 C-27.58323128 32.89671103 -18.51520165 18.0266924 -8.33203125 4.02734375 C-5.61072529 0.7374067 -4.3327901 -0.23211376 0 0 Z " fill="#55B5F2" transform="translate(357.5,388.1875)"/>
<path d="M0 0 C1.72265625 1.515625 1.72265625 1.515625 3 3 C2.154375 3.928125 1.30875 4.85625 0.4375 5.8125 C-12.00842757 20.40630633 -16.01188432 34.53316713 -15.25292969 53.29296875 C-14.66797612 59.55355288 -12.47149912 65.25376455 -10 71 C-15.8601556 69.96892585 -19.96191365 65.56420889 -23.55859375 61.0390625 C-27.85214288 54.59236856 -29.76600751 47.78774306 -29 40 C-25.504597 25.22397822 -18.35206188 12.79099889 -9 1 C-5.95016004 -0.52491998 -3.3576631 -0.23562548 0 0 Z " fill="#55B4F2" transform="translate(258,359)"/>
</svg>
