<?xml version="1.0" encoding="UTF-8"?>
<svg version="1.1" xmlns="http://www.w3.org/2000/svg" width="512" height="512">
<path d="M0 0 C-0.26216309 0.85118408 -0.52432617 1.70236816 -0.79443359 2.5793457 C-1.77974304 5.7891187 -2.75934974 9.00052477 -3.73535156 12.21313477 C-4.15598945 13.593694 -4.57878031 14.9735994 -5.00390625 16.3527832 C-8.45817973 27.5669517 -11.39947608 38.42881597 -11.3125 50.25 C-11.30758545 51.06355957 -11.3026709 51.87711914 -11.29760742 52.71533203 C-10.8568279 75.82122066 -1.08003404 97.56764751 15 114 C32.57379255 130.74800494 54.92380464 138.8264187 79 139 C88.98869405 138.65823738 98.84316944 136.58267184 108.609375 134.5859375 C111.5059009 134.08538579 114.07412423 133.87715789 117 134 C114.83903948 157.00591813 102.78613234 181.45080253 88 199 C87.19304687 199.98097656 86.38609375 200.96195313 85.5546875 201.97265625 C75.76543683 213.48133904 62.69349794 223.55065769 49 230 C48.01 230 47.02 230 46 230 C46.38671875 230.87398437 46.7734375 231.74796875 47.171875 232.6484375 C58.61334667 259.26549458 59.90287614 288.49543683 49.57080078 315.72753906 C41.57056291 335.74361237 27.24969414 353.45546505 9 365 C8.23429687 365.51046875 7.46859375 366.0209375 6.6796875 366.546875 C-14.74313525 380.26313775 -37.78111386 381.60099606 -62.48266602 381.51757812 C-65.20501004 381.52081271 -67.92732733 381.52999506 -70.6496582 381.53881836 C-77.23116956 381.55646451 -83.8124969 381.55282657 -90.39401502 381.5411678 C-95.74954322 381.53207911 -101.1050204 381.53093275 -106.46055412 381.53526306 C-107.22710859 381.53587599 -107.99366305 381.53648893 -108.78344644 381.53712043 C-110.34139715 381.53839952 -111.89934784 381.53969638 -113.45729851 381.5410108 C-128.01417234 381.55237564 -142.57094486 381.53936716 -157.12780207 381.51780933 C-169.5799623 381.49993848 -182.03197331 381.5030503 -194.48413086 381.52148438 C-208.99576181 381.54295766 -223.50730435 381.55128115 -238.01894897 381.53903532 C-239.57038652 381.53776132 -241.12182407 381.53650383 -242.67326164 381.53526306 C-243.43631082 381.53464596 -244.19936 381.53402886 -244.98553189 381.53339306 C-250.32635527 381.52995973 -255.66712189 381.53572452 -261.00793648 381.54518127 C-267.52839485 381.55647466 -274.04866097 381.55320871 -280.56909771 381.5320583 C-283.8870023 381.52164568 -287.20432745 381.51945957 -290.5222683 381.53065491 C-321.43013222 381.62526736 -346.27915019 375.56416155 -369.3046875 353.84765625 C-389.86580236 332.12439142 -395.94981544 306.69328368 -395.16601562 277.38916016 C-394.21045094 257.88158826 -384.74525279 239.46758425 -372 225 C-370.92298828 223.77410156 -370.92298828 223.77410156 -369.82421875 222.5234375 C-352.97206847 204.59299607 -329.39547343 195.05160586 -305.07885742 194.10009766 C-303.38624758 194.05241851 -301.69311332 194.02384667 -300 194 C-299.98582031 193.40316406 -299.97164063 192.80632812 -299.95703125 192.19140625 C-298.50220358 165.72927055 -283.86848083 141.69808887 -266 123 C-265.34 122.26523438 -264.68 121.53046875 -264 120.7734375 C-243.60426038 98.90982268 -212.22557487 87.03309031 -182.80078125 85.71875 C-161.9748724 85.1669557 -141.82122695 88.92547986 -123 98 C-122.62875 96.865625 -122.2575 95.73125 -121.875 94.5625 C-121.59785156 93.74136719 -121.32070313 92.92023438 -121.03515625 92.07421875 C-120.48285842 90.43399841 -119.93274033 88.79298424 -119.39794922 87.14697266 C-114.08320157 70.82054562 -106.97971364 57.21795382 -96 44 C-95.33097656 43.17757812 -94.66195313 42.35515625 -93.97265625 41.5078125 C-88.93434432 35.55250719 -83.18112577 30.73392284 -77 26 C-76.22011719 25.39285156 -75.44023437 24.78570312 -74.63671875 24.16015625 C-56.7264571 10.88549174 -36.21081401 5.4832001 -14.64038086 1.49316406 C-12.95161501 1.17774039 -11.26858711 0.82856698 -9.59594727 0.43652344 C-6.37217925 -0.10557166 -3.2626095 -0.06397274 0 0 Z " fill="#BDDFFE" transform="translate(395,66)"/>
<path d="M0 0 C0 97.35 0 194.7 0 295 C-170.51564915 295 -170.51564915 295 -199.3046875 267.84765625 C-219.86580236 246.12439142 -225.94981544 220.69328368 -225.16601562 191.38916016 C-224.21045094 171.88158826 -214.74525279 153.46758425 -202 139 C-200.92298828 137.77410156 -200.92298828 137.77410156 -199.82421875 136.5234375 C-182.97206847 118.59299607 -159.39547343 109.05160586 -135.07885742 108.10009766 C-133.38624758 108.05241851 -131.69311332 108.02384667 -130 108 C-129.98582031 107.40316406 -129.97164063 106.80632812 -129.95703125 106.19140625 C-128.50220358 79.72927055 -113.86848083 55.69808887 -96 37 C-95.34 36.26523438 -94.68 35.53046875 -94 34.7734375 C-77.0091696 16.55978218 -51.78472584 5.22999309 -27.5 1.125 C-26.47169067 0.94457153 -26.47169067 0.94457153 -25.42260742 0.76049805 C-16.88905569 -0.49555204 -8.79495067 0 0 0 Z " fill="#DDEAF1" transform="translate(225,152)"/>
<path d="M0 0 C-0.39324463 1.27677612 -0.39324463 1.27677612 -0.79443359 2.5793457 C-1.77974304 5.7891187 -2.75934974 9.00052477 -3.73535156 12.21313477 C-4.15598945 13.593694 -4.57878031 14.9735994 -5.00390625 16.3527832 C-8.45817973 27.5669517 -11.39947608 38.42881597 -11.3125 50.25 C-11.30758545 51.06355957 -11.3026709 51.87711914 -11.29760742 52.71533203 C-10.8568279 75.82122066 -1.08003404 97.56764751 15 114 C32.57379255 130.74800494 54.92380464 138.8264187 79 139 C88.98869405 138.65823738 98.84316944 136.58267184 108.609375 134.5859375 C111.5059009 134.08538579 114.07412423 133.87715789 117 134 C114.83903948 157.00591813 102.78613234 181.45080253 88 199 C87.19304687 199.98097656 86.38609375 200.96195313 85.5546875 201.97265625 C76.00764729 213.19658554 59.86604046 228.11709963 45 231 C44.45472656 230.03320312 43.90945313 229.06640625 43.34765625 228.0703125 C38.63449459 219.87396826 33.69917707 212.7519265 27 206 C26.175 205.13375 25.35 204.2675 24.5 203.375 C23.675 202.59125 22.85 201.8075 22 201 C21.12214844 200.12988281 21.12214844 200.12988281 20.2265625 199.2421875 C-1.42251968 178.71982335 -30.20064709 173.57830026 -59 173 C-59.22550537 172.43716309 -59.45101074 171.87432617 -59.68334961 171.29443359 C-71.86992768 141.1611312 -90.32226257 117.03922029 -119.20703125 101.25390625 C-121 100 -121 100 -122 97 C-121.4283716 94.37110481 -120.78055409 91.87946505 -120 89.3125 C-119.7736084 88.56081543 -119.5472168 87.80913086 -119.31396484 87.03466797 C-114.11946328 70.3711529 -106.22182112 56.39450904 -95 43 C-94.44699219 42.31164062 -93.89398438 41.62328125 -93.32421875 40.9140625 C-88.53650689 35.1322434 -82.93659582 30.5640681 -77 26 C-76.21882813 25.3915625 -75.43765625 24.783125 -74.6328125 24.15625 C-56.71929289 10.88697621 -36.2113015 5.48329028 -14.64038086 1.49316406 C-12.95161501 1.17774039 -11.26858711 0.82856698 -9.59594727 0.43652344 C-6.37217925 -0.10557166 -3.2626095 -0.06397274 0 0 Z " fill="#FEBA36" transform="translate(395,66)"/>
</svg>
